{
    "asset" : {
        "generator" : "Khronos glTF Blender I/O v1.7.33",
        "version" : "2.0"
    },
    "scene" : 0,
    "scenes" : [
        {
            "name" : "Scene",
            "nodes" : [
                0
            ]
        }
    ],
    "nodes" : [
        {
            "mesh" : 0,
            "name" : "Grid",
            "scale" : [
                30,
                30,
                30
            ]
        }
    ],
    "meshes" : [
        {
            "name" : "Grid.004",
            "primitives" : [
                {
                    "attributes" : {
                        "POSITION" : 0,
                        "NORMAL" : 1,
                        "TEXCOORD_0" : 2
                    },
                    "indices" : 3
                }
            ]
        }
    ],
    "accessors" : [
        {
            "bufferView" : 0,
            "componentType" : 5126,
            "count" : 23552,
            "max" : [
                1,
                0.552815854549408,
                1
            ],
            "min" : [
                -1,
                -0.08908797800540924,
                -1
            ],
            "type" : "VEC3"
        },
        {
            "bufferView" : 1,
            "componentType" : 5126,
            "count" : 23552,
            "type" : "VEC3"
        },
        {
            "bufferView" : 2,
            "componentType" : 5126,
            "count" : 23552,
            "type" : "VEC2"
        },
        {
            "bufferView" : 3,
            "componentType" : 5123,
            "count" : 135000,
            "type" : "SCALAR"
        }
    ],
    "bufferViews" : [
        {
            "buffer" : 0,
            "byteLength" : 282624,
            "byteOffset" : 0
        },
        {
            "buffer" : 0,
            "byteLength" : 282624,
            "byteOffset" : 282624
        },
        {
            "buffer" : 0,
            "byteLength" : 188416,
            "byteOffset" : 565248
        },
        {
            "buffer" : 0,
            "byteLength" : 270000,
            "byteOffset" : 753664
        }
    ],
    "buffers" : [
        {
            "byteLength" : 1023664,
            "uri" : "data:application/octet-stream;base64,"
        }
    ]
}
